<svg xmlns="http://www.w3.org/2000/svg" viewBox="0 0 3.068 2.967" width="32" height="32">
  <path d="m 106.47691,150.30733 v 0.0765 q -0.14883,0.0269 -0.22531,0.0951 -0.10955,0.10128 -0.1943,0.31006 l -0.97772,2.38538 h -0.0765 l -1.05006,-2.41639 q -0.0806,-0.18603 -0.11369,-0.22738 -0.0517,-0.0641 -0.12816,-0.0992 -0.0744,-0.0372 -0.20257,-0.0476 v -0.0765 h 1.14515 v 0.0765 q -0.19431,0.0186 -0.25218,0.0661 -0.0579,0.0475 -0.0579,0.12196 0,0.10335 0.0951,0.32246 l 0.71314,1.64331 0.66146,-1.62264 q 0.0971,-0.23978 0.0971,-0.3328 0,-0.0599 -0.06,-0.11369 -0.0599,-0.0558 -0.20257,-0.0786 -0.0103,-0.002 -0.0351,-0.006 v -0.0765 z" fill="#111111" transform="translate(-103.459 -150.257)"/>
</svg>